<?xml version="1.0" encoding="utf-8"?>
<!-- Generator: Adobe Illustrator 19.2.0, SVG Export Plug-In . SVG Version: 6.00 Build 0)  -->
<svg version="1.1" id="Layer_1" xmlns="http://www.w3.org/2000/svg" xmlns:xlink="http://www.w3.org/1999/xlink" x="0px" y="0px"
	 viewBox="0 0 800 250" style="enable-background:new 0 0 800 250;" xml:space="preserve">
<style type="text/css">
	.st0{fill:url(#SVGID_1_);}
	.st1{fill:url(#SVGID_2_);}
	.st2{fill:#FFFFFF;}
	.st3{fill:#D4EFFF;}
	.st4{opacity:0.33;}
	.st5{opacity:0.34;}
</style>
<linearGradient id="SVGID_1_" gradientUnits="userSpaceOnUse" x1="0.5375" y1="85.2701" x2="804.1218" y2="85.2701">
	<stop  offset="0" style="stop-color:#86D4F2"/>
	<stop  offset="1" style="stop-color:#C6E1A8"/>
</linearGradient>
<rect x="0.5" y="0.4" class="st0" width="803.6" height="169.8"/>
<linearGradient id="SVGID_2_" gradientUnits="userSpaceOnUse" x1="402.0071" y1="140.6726" x2="402.6443" y2="236.2383">
	<stop  offset="0" style="stop-color:#29ABE2"/>
	<stop  offset="1" style="stop-color:#0071BC"/>
</linearGradient>
<rect x="0.5" y="128.6" class="st1" width="803.6" height="120.8"/>
<g>
	<polygon class="st2" points="534.3,89.7 542.4,87.1 534.9,129.5 	"/>
	<polygon class="st3" points="554.7,97.8 542.4,87.1 534.9,129.5 558.2,128.3 	"/>
	<polygon class="st2" points="572.6,104.1 554.7,97.8 558.2,128.3 582.7,128.8 	"/>
	<polygon class="st3" points="584.8,108.8 582.7,128.8 572.6,104.1 	"/>
	<polygon class="st2" points="603.4,111.3 606.9,129 582.7,128.8 584.8,108.8 	"/>
	<polygon class="st3" points="609.9,120.6 603.4,111.3 606.9,129 	"/>
	<polygon class="st2" points="631.7,120.9 633.8,128.1 606.9,129 609.9,120.6 	"/>
	<polygon class="st3" points="640.7,128.3 631.7,120.9 633.8,128.1 	"/>
	<polygon class="st2" points="526.2,104.8 508.2,98.5 511.8,129 536.3,129.5 	"/>
	<polygon class="st3" points="538.4,109.4 536.3,129.5 526.2,104.8 	"/>
</g>
<g>
	<polygon class="st2" points="806.4,63.9 792,59.3 805.3,134.9 	"/>
	<polygon class="st3" points="770.1,78.4 792,59.3 805.3,134.9 763.8,132.8 	"/>
	<polygon class="st2" points="738.2,89.6 770.1,78.4 763.8,132.8 720.1,133.6 	"/>
	<polygon class="st3" points="716.3,97.9 720.1,133.6 738.2,89.6 	"/>
	<polygon class="st2" points="683.3,102.5 676.9,134 720.1,133.6 716.3,97.9 	"/>
	<polygon class="st3" points="671.6,119.1 683.3,102.5 676.9,134 	"/>
	<polygon class="st2" points="632.7,119.5 629,132.4 676.9,134 671.6,119.1 	"/>
	<polygon class="st3" points="616.7,133.2 632.7,119.9 629,132.8 	"/>
</g>
<g class="st4">
	<polygon class="st2" points="805.3,200.5 790.9,205 804.2,129.5 	"/>
	<polygon class="st3" points="769.1,185.9 790.9,205 804.2,129.5 762.7,131.6 	"/>
	<polygon class="st2" points="737.1,174.7 769.1,185.9 762.7,131.6 719,130.7 	"/>
	<polygon class="st3" points="715.3,166.4 719,130.7 737.1,174.7 	"/>
	<polygon class="st2" points="682.3,161.9 675.9,130.3 719,130.7 715.3,166.4 	"/>
	<polygon class="st3" points="670.5,145.3 682.3,161.9 675.9,130.3 	"/>
	<polygon class="st2" points="631.6,144.8 627.9,132 675.9,130.3 670.5,145.3 	"/>
	<polygon class="st3" points="615.7,131.6 631.6,144.8 627.9,132 	"/>
</g>
<g class="st5">
	<polygon class="st2" points="534.9,166.8 542.9,169.3 535.5,127 	"/>
	<polygon class="st3" points="555.2,158.6 542.9,169.3 535.5,127 558.8,128.1 	"/>
	<polygon class="st2" points="573.1,152.3 555.2,158.6 558.8,128.1 583.3,127.7 	"/>
	<polygon class="st3" points="585.4,147.7 583.3,127.7 573.1,152.3 	"/>
	<polygon class="st2" points="603.9,145.1 607.5,127.4 583.3,127.7 585.4,147.7 	"/>
	<polygon class="st3" points="610.5,135.8 603.9,145.1 607.5,127.4 	"/>
	<polygon class="st2" points="632.3,135.6 634.4,128.4 607.5,127.4 610.5,135.8 	"/>
	<polygon class="st3" points="641.2,128.1 632.3,135.6 634.4,128.4 	"/>
	<polygon class="st2" points="526.7,151.7 508.8,157.9 512.4,127.4 536.9,127 	"/>
	<polygon class="st3" points="538.9,147 536.9,127 526.7,151.7 	"/>
</g>
</svg>
