<?xml version="1.0" encoding="utf-8"?>
<!-- Generator: Adobe Illustrator 19.2.0, SVG Export Plug-In . SVG Version: 6.00 Build 0)  -->
<svg version="1.1" id="Layer_1" xmlns="http://www.w3.org/2000/svg" xmlns:xlink="http://www.w3.org/1999/xlink" x="0px" y="0px"
	 viewBox="0 0 900 600" style="enable-background:new 0 0 900 600;" xml:space="preserve">
<style type="text/css">
	.st0{fill:url(#SVGID_1_);}
	.st1{fill:url(#SVGID_2_);}
	.st2{fill:#FFFFFF;}
	.st3{fill:#D4EFFF;}
	.st4{opacity:0.33;}
	.st5{opacity:0.3;}
	.st6{fill:#EEFBFF;}
	.st7{fill:#BBE8F2;}
	.st8{fill:#D4F4FF;}
	.st9{fill:#BAE8F2;}
	.st10{opacity:0.4;fill:#B3B3B3;}
	.st11{opacity:0.34;}
</style>
<linearGradient id="SVGID_1_" gradientUnits="userSpaceOnUse" x1="0" y1="204.5" x2="900" y2="204.5">
	<stop  offset="0" style="stop-color:#86D4F2"/>
	<stop  offset="1" style="stop-color:#C6E1A8"/>
</linearGradient>
<rect class="st0" width="900" height="409"/>
<linearGradient id="SVGID_2_" gradientUnits="userSpaceOnUse" x1="449.2408" y1="340.6141" x2="450.7407" y2="565.6028">
	<stop  offset="0" style="stop-color:#29ABE2"/>
	<stop  offset="1" style="stop-color:#0071BC"/>
</linearGradient>
<rect y="309" class="st1" width="900" height="291"/>
<g>
	<polygon class="st2" points="396.3,215.1 411.5,208.9 397.4,311 	"/>
	<polygon class="st3" points="434.5,234.7 411.5,208.9 397.4,311 441.2,308.2 	"/>
	<polygon class="st2" points="468.1,249.9 434.5,234.7 441.2,308.2 487.2,309.3 	"/>
	<polygon class="st3" points="491.1,261.1 487.2,309.3 468.1,249.9 	"/>
	<polygon class="st2" points="525.9,267.3 532.6,309.9 487.2,309.3 491.1,261.1 	"/>
	<polygon class="st3" points="538.2,289.7 525.9,267.3 532.6,309.9 	"/>
	<polygon class="st2" points="579.2,290.2 583.1,307.6 532.6,309.9 538.2,289.7 	"/>
	<polygon class="st3" points="596,308.2 579.2,290.2 583.1,307.6 	"/>
	<polygon class="st2" points="381,251.5 347.3,236.3 354,309.8 400,310.9 	"/>
	<polygon class="st3" points="404,262.7 400,310.9 381,251.5 	"/>
</g>
<g>
	<polygon class="st2" points="907,153 880,142 905,324 	"/>
	<polygon class="st3" points="839,188 880,142 905,324 827,319 	"/>
	<polygon class="st2" points="779,215 839,188 827,319 745,321 	"/>
	<polygon class="st3" points="738,235 745,321 779,215 	"/>
	<polygon class="st2" points="676,246 664,322 745,321 738,235 	"/>
	<polygon class="st3" points="654,286 676,246 664,322 	"/>
	<polygon class="st2" points="581,287 574,318 664,322 654,286 	"/>
	<polygon class="st3" points="551,320 581,288 574,319 	"/>
</g>
<g class="st4">
	<polygon class="st2" points="905,482 878,493 903,311 	"/>
	<polygon class="st3" points="837,447 878,493 903,311 825,316 	"/>
	<polygon class="st2" points="777,420 837,447 825,316 743,314 	"/>
	<polygon class="st3" points="736,400 743,314 777,420 	"/>
	<polygon class="st2" points="674,389 662,313 743,314 736,400 	"/>
	<polygon class="st3" points="652,349 674,389 662,313 	"/>
	<polygon class="st2" points="579,348 572,317 662,313 652,349 	"/>
	<polygon class="st3" points="549,316 579,348 572,317 	"/>
</g>
<g>
	<g class="st5">
		<polygon class="st6" points="62.4,516.9 26.9,533.4 73,553.8 161,561.4 251.7,528 198.5,517.2 		"/>
		<polygon class="st7" points="26.8,533.4 26,550.5 43,554.9 43,537.7 		"/>
		<polygon class="st8" points="43.5,537.2 55,543.8 55,559.6 42.8,554.9 		"/>
		<polygon class="st9" points="111.6,545.9 55,543.8 55,559.6 111.3,562.6 		"/>
		<polygon class="st8" points="163,554.9 111,545.9 110.4,562.6 163,571.3 		"/>
		<polygon class="st7" points="209.2,543.1 163,554.9 163,571 209.9,560.5 		"/>
		<polygon class="st8" points="250.9,528 208.7,543.1 209.6,560.5 252.3,544.4 		"/>
	</g>
	<g>
		<g>
			<polygon class="st6" points="62.4,503.7 26.9,520.3 73,540.6 161,548.2 251.7,514.9 198.5,504 			"/>
			<polygon class="st7" points="26.8,520.3 26,537.3 43,541.8 43,524.5 			"/>
			<polygon class="st8" points="43.5,524.1 55,530.7 55,546.5 42.8,541.8 			"/>
			<polygon class="st9" points="111.6,532.7 55,530.7 55,546.5 111.3,549.4 			"/>
			<polygon class="st8" points="163,541.8 111,532.7 110.4,549.4 163,558.2 			"/>
			<polygon class="st7" points="209.2,529.9 163,541.8 163,557.9 209.9,547.3 			"/>
			<polygon class="st8" points="250.9,514.9 208.7,529.9 209.6,547.3 252.3,531.2 			"/>
		</g>
		<ellipse class="st10" cx="122.1" cy="515.4" rx="67.6" ry="6.5"/>
		<g id="tZ5jXE_2_">
			<g>
				<path class="st2" d="M99.8,496c-0.7-0.7-1.3-0.6-2.1-0.1c-2,1.1-4.1,2-6.1,3.1c-1.6,0.8-3.1,1.9-4.6,2.7c-0.2,0.1-0.6,0-0.9,0
					c0-0.1-0.1-0.2-0.1-0.3c-2.1,2.2-4.2,4.4-6.3,6.6c0,0-0.2-0.2-0.3-0.5c-1.1,1-2.1,1.9-3.1,2.9c-1,1-0.7,1.8,0.5,2.5
					c0.9,0.5,1.8,1,2.4,1.8c0.3,0.4,0.3,1.2,0.3,1.8c0,0.2-0.8,0.3-1.3,0.3c-3.6-0.1-7.1-0.1-10.7-0.2c-2.1-0.1-2.2-0.5-2.8-2.5
					c-0.7-2.3-0.2-4.6-0.7-6.8c-0.5-2.7,0.6-4.7,1.9-6.6c1.6-2.4,3.4-4.7,5-7c0.8-1.1,1.5-2.3,2.4-3.6c-0.6,0-0.9-0.1-1.3-0.1
					c0.8-0.9,1.5-1.6,2.2-2.4c-0.3-0.1-0.4-0.2-0.6-0.3c0.4-1.1,2.2-1.4,1.7-3c3.2-2.8,4.7-6.6,5.7-10.5c0.8-3.1,2.3-5.5,4.8-7.5
					c7-5.5,14.5-9.9,23.2-12c4.8-1.2,9.7-1.3,14.6-0.9c3.5,0.3,7.1,0.7,10.6,1.2c1.8,0.2,3.5,0.8,5,2.1c1.5,1.3,3.3,0.7,5.1,0.3
					c1.8-0.4,3.6-1,5.4-1c1.8,0,3.6,0.5,5.4,1c4.3,1.2,8.7,1.9,13.2,2.1c1.8,0.1,3.6,0.2,5.4,0.2c0.5,0,1-0.4,1.5-0.6
					c0.3-0.2,0.6-0.5,0.9-0.7c1.4-0.8,2-0.6,2.5,0.9c0.5,1.2,0.7,1.2,1.7,0.5c0.3-0.2,0.7-0.3,1.1-0.2c0.3,0.1,0.8,0.3,1,0.5
					c0.9,1.5,2.5,1.7,3.9,2.4c2.7,1.3,5.2,2.9,7.3,5c0.2,0.2,0.6,0.5,0.5,0.7c-0.1,1.3,1,1.7,1.7,2.3c1.5,1.2,3,2.4,4.3,3.8
					c1.1,1.1,1.1,1.6,0.1,2.8c-1,1.1-2,2.2-3.2,3c-0.7,0.5-1.8,0.7-2.7,0.8c-2.4,0.2-4.9,0.2-7.3,0.5c-1.9,0.2-3.8,0.7-5.7,1.1
					c-3.9,0.8-7.8,0.4-11.6-0.8c-1.1-0.3-2-0.2-2.9,0.2c-0.6,0.3-0.8,0.6-0.8,1.3c-0.1,3.6,0.7,6.9,2.7,10c0.7,1.1,1.4,2.3,2,3.4
					c0.1,0.2,0.2,0.5,0.1,0.9c-0.3-0.2-0.5-0.4-0.6-0.5c0.6,2.6,1.1,5.3,1.9,8c0.4,1.4,1,2.8,1.8,4.1c0.5,0.7,1.4,1.4,2.2,1.7
					c1.9,0.7,3.8,1.4,5,3.3c0.8,1.3,0.7,1.8-0.8,1.9c-3.8,0.2-7.6,0.3-11.5,0.4c-0.7,0-1.3-0.1-2-0.1c-1.9,0-2.3-0.4-3.1-2.2
					c-0.8-2-1.7-4-2.7-6c-0.6-1.1-1.5-2.2-2.3-3.2c-1.2-1.6-2.5-3.1-3.7-4.7c-0.2,0.1-0.4,0.2-0.7,0.4c-0.2-0.8-0.3-1.4-0.4-2.1
					c-0.2,0.3-0.4,0.6-0.6,0.9c-0.1,0-0.2,0.1-0.3,0.1c0.1-1.3-0.8-1.8-1.7-2.5c-0.1,0.5-0.1,0.9-0.2,1.6c-0.6-0.5-1-0.9-1.5-1.4
					c-0.1,0.6-0.2,1.2-0.3,2.1c-0.5-0.7-0.8-1.2-1.2-1.8c-2,3.1-3.6,6.2-4.2,9.8c-0.2,1.3-0.4,2.6-0.5,3.9c-0.1,0.9,0.3,1.4,1.3,1.5
					c1,0.1,1.9,0.3,2.9,0.5c1.4,0.4,2.3,1.4,2.7,2.7c0.3,0.8,0.1,1.4-0.9,1.4c-2,0.1-4,0.3-6,0.3c-2.4,0-4.9-0.1-7.3-0.1
					c-1.3,0-2-0.6-2.5-1.7c-0.2-0.5-0.5-0.9-0.8-1.4c-0.4,0.2-0.7,0.4-1.2,0.7c-0.8-3.1-0.5-6.1-0.4-9.2c-0.3,0.2-0.7,0.4-1,0.7
					c-0.1,0-0.2-0.1-0.4-0.1c0.5-2.3,0.9-4.6,1.4-7c-0.2,0-0.4,0-0.9-0.1c0.2-1,0.3-1.9,0.5-2.8c0,0-0.1,0-0.1,0
					c-0.2,0.7-0.4,1.4-0.6,2.3c-0.3-0.2-0.5-0.4-0.8-0.6c-0.3,0.4-0.5,0.7-0.8,1.2c-1.8-1.6-3.9-1.1-5.9-0.7
					c-4.1,0.8-8.3,0.8-12.5,0.6l0.1,0c-0.3-0.1-0.5-0.1-0.8-0.2c-2.8-0.7-5.5-1.5-8.3-2.2C100.4,496.1,100.1,496,99.8,496z"/>
				<path class="st2" d="M99.8,495.1c0.3,0,0.6,0.1,0.9,0.1c0.3,0.2,0.7,0.5,1,0.6c2.7,0.6,5.4,1.2,8,1.8l-0.1,0c2,0.1,4,0.1,6,0.2
					c0.5,0,1,0,1.8,0c-0.3,0.5-0.5,0.9-0.7,1.3c-2.5,3.3-1.7,6.7-0.6,10.2c0.2,0.5,1.1,0.9,1.8,1.1c1.6,0.5,3.2,0.8,3.7,2.8
					c0.4,1.4,0.2,1.9-1.2,1.9c-4.8,0.1-9.7,0.1-14.5,0.1c-0.8,0-1.6-0.1-2.4-0.1c-1,0-1.6-0.4-1.6-1.4c-0.1-1.7-0.1-3.4-0.1-5
					c0-0.5-0.1-1.1-0.5-1.6c0.2-0.7,0.5-1.3,0.6-2c0.1-0.4,0.4-1.1-0.4-1.2c0,0-0.1-0.3-0.1-0.5c0.7-2.8-0.2-5.2-1.8-7.5
					c-0.1-0.2-0.2-0.4-0.3-0.6C99.5,495.2,99.7,495.1,99.8,495.1z"/>
			</g>
		</g>
	</g>
</g>
<g class="st11">
	<polygon class="st2" points="397.3,400.8 412.5,407 398.4,304.9 	"/>
	<polygon class="st3" points="435.5,381.2 412.5,407 398.4,304.9 442.2,307.7 	"/>
	<polygon class="st2" points="469.1,366.1 435.5,381.2 442.2,307.7 488.2,306.6 	"/>
	<polygon class="st3" points="492.1,354.8 488.2,306.6 469.1,366.1 	"/>
	<polygon class="st2" points="526.9,348.7 533.6,306 488.2,306.6 492.1,354.8 	"/>
	<polygon class="st3" points="539.2,326.2 526.9,348.7 533.6,306 	"/>
	<polygon class="st2" points="580.2,325.7 584.1,308.3 533.6,306 539.2,326.2 	"/>
	<polygon class="st3" points="597,307.7 580.2,325.7 584.1,308.3 	"/>
	<polygon class="st2" points="382,364.4 348.3,379.6 355,306.1 401,305 	"/>
	<polygon class="st3" points="405,353.2 401,305 382,364.4 	"/>
</g>
</svg>
