<?xml version="1.0" encoding="utf-8"?>
<!-- Generator: Adobe Illustrator 19.2.0, SVG Export Plug-In . SVG Version: 6.00 Build 0)  -->
<svg version="1.1" id="Layer_1" xmlns="http://www.w3.org/2000/svg" xmlns:xlink="http://www.w3.org/1999/xlink" x="0px" y="0px"
	 viewBox="0 0 100 100" style="enable-background:new 0 0 100 100;" xml:space="preserve">
<style type="text/css">
	.st0{opacity:0.3;}
	.st1{fill:#EEFBFF;}
	.st2{fill:#BBE8F2;}
	.st3{fill:#D4F4FF;}
	.st4{fill:#BAE8F2;}
	.st5{opacity:0.4;fill:#B3B3B3;}
	.st6{fill:#FFFFFF;}
</style>
<g>
	<g class="st0">
		<polygon class="st1" points="22.4,54.3 9.4,60.4 26.3,67.9 58.7,70.7 92.1,58.4 72.5,54.4 		"/>
		<polygon class="st2" points="10.2,60.4 9.8,66.7 16,68.3 16,62 		"/>
		<polygon class="st3" points="15.6,61.8 20,64.2 20,70 15.4,68.3 		"/>
		<polygon class="st4" points="40.7,65 20,64.2 20,70 40.7,71.1 		"/>
		<polygon class="st3" points="60,68.3 40.6,65 40.5,71.1 60,74.3 		"/>
		<polygon class="st2" points="76.7,63.9 60,68.3 60,74.2 77.1,70.3 		"/>
		<polygon class="st3" points="91.8,58.4 76.3,63.9 76.6,70.3 92.3,64.4 		"/>
	</g>
	<g>
		<g>
			<polygon class="st1" points="22.4,49.5 9.4,55.5 26.3,63 58.7,65.8 92.1,53.6 72.5,49.6 			"/>
			<polygon class="st2" points="10.2,55.5 9.8,61.8 16,63.5 16,57.1 			"/>
			<polygon class="st3" points="15.6,56.9 20,59.4 20,65.2 15.4,63.5 			"/>
			<polygon class="st4" points="40.7,60.1 20,59.4 20,65.2 40.7,66.3 			"/>
			<polygon class="st3" points="60,63.5 40.6,60.1 40.5,66.3 60,69.5 			"/>
			<polygon class="st2" points="76.7,59.1 60,63.5 60,69.4 77.1,65.5 			"/>
			<polygon class="st3" points="91.8,53.6 76.3,59.1 76.6,65.5 92.3,59.6 			"/>
		</g>
		<ellipse class="st5" cx="44.4" cy="53.7" rx="24.9" ry="2.4"/>
		<g id="tZ5jXE_2_">
			<g>
				<path class="st6" d="M36.2,46.6c-0.3-0.2-0.5-0.2-0.8,0c-0.7,0.4-1.5,0.7-2.3,1.1c-0.6,0.3-1.1,0.7-1.7,1c-0.1,0-0.2,0-0.3,0
					c0,0,0-0.1-0.1-0.1c-0.8,0.8-1.5,1.6-2.3,2.4c0,0-0.1-0.1-0.1-0.2c-0.4,0.4-0.8,0.7-1.1,1.1c-0.4,0.4-0.3,0.7,0.2,0.9
					c0.3,0.2,0.6,0.4,0.9,0.6c0.1,0.1,0.1,0.4,0.1,0.6c0,0.1-0.3,0.1-0.5,0.1c-1.3,0-2.6,0-3.9-0.1c-0.8,0-0.8-0.2-1-0.9
					c-0.2-0.8-0.1-1.7-0.2-2.5c-0.2-1,0.2-1.7,0.7-2.4c0.6-0.9,1.2-1.7,1.9-2.6c0.3-0.4,0.6-0.8,0.9-1.3c-0.2,0-0.3,0-0.5,0
					c0.3-0.3,0.6-0.6,0.8-0.9c-0.1,0-0.2-0.1-0.2-0.1c0.2-0.4,0.8-0.5,0.6-1.1c1.2-1,1.7-2.4,2.1-3.9c0.3-1.1,0.8-2,1.8-2.8
					c2.6-2,5.3-3.6,8.5-4.4c1.8-0.4,3.6-0.5,5.4-0.3c1.3,0.1,2.6,0.3,3.9,0.4c0.7,0.1,1.3,0.3,1.8,0.8c0.5,0.5,1.2,0.3,1.9,0.1
					c0.7-0.2,1.3-0.4,2-0.4c0.7,0,1.3,0.2,2,0.4c1.6,0.4,3.2,0.7,4.9,0.8c0.7,0,1.3,0.1,2,0.1c0.2,0,0.4-0.1,0.6-0.2
					c0.1-0.1,0.2-0.2,0.3-0.2c0.5-0.3,0.7-0.2,0.9,0.3c0.2,0.4,0.3,0.5,0.6,0.2c0.1-0.1,0.3-0.1,0.4-0.1c0.1,0,0.3,0.1,0.4,0.2
					c0.3,0.5,0.9,0.6,1.4,0.9c1,0.5,1.9,1.1,2.7,1.9c0.1,0.1,0.2,0.2,0.2,0.3c0,0.5,0.4,0.6,0.6,0.8c0.5,0.5,1.1,0.9,1.6,1.4
					c0.4,0.4,0.4,0.6,0,1c-0.4,0.4-0.7,0.8-1.2,1.1c-0.3,0.2-0.7,0.3-1,0.3c-0.9,0.1-1.8,0.1-2.7,0.2c-0.7,0.1-1.4,0.3-2.1,0.4
					c-1.4,0.3-2.9,0.1-4.3-0.3c-0.4-0.1-0.7-0.1-1.1,0.1c-0.2,0.1-0.3,0.2-0.3,0.5c0,1.3,0.3,2.5,1,3.7c0.3,0.4,0.5,0.8,0.7,1.2
					c0,0.1,0.1,0.2,0,0.3c-0.1-0.1-0.2-0.2-0.2-0.2c0.2,1,0.4,2,0.7,3c0.1,0.5,0.4,1,0.7,1.5c0.2,0.3,0.5,0.5,0.8,0.6
					c0.7,0.3,1.4,0.5,1.8,1.2c0.3,0.5,0.3,0.7-0.3,0.7c-1.4,0.1-2.8,0.1-4.2,0.1c-0.2,0-0.5,0-0.7,0c-0.7,0-0.9-0.2-1.1-0.8
					c-0.3-0.7-0.6-1.5-1-2.2c-0.2-0.4-0.5-0.8-0.8-1.2c-0.4-0.6-0.9-1.1-1.4-1.7c-0.1,0-0.1,0.1-0.3,0.2c-0.1-0.3-0.1-0.5-0.2-0.8
					c-0.1,0.1-0.1,0.2-0.2,0.3c0,0-0.1,0-0.1,0c0-0.5-0.3-0.7-0.6-0.9c0,0.2,0,0.3-0.1,0.6c-0.2-0.2-0.4-0.3-0.6-0.5
					c0,0.2-0.1,0.4-0.1,0.8c-0.2-0.3-0.3-0.5-0.4-0.7c-0.7,1.1-1.3,2.3-1.6,3.6c-0.1,0.5-0.1,1-0.2,1.4c0,0.3,0.1,0.5,0.5,0.6
					c0.4,0,0.7,0.1,1.1,0.2c0.5,0.1,0.8,0.5,1,1c0.1,0.3,0,0.5-0.3,0.5c-0.7,0-1.5,0.1-2.2,0.1c-0.9,0-1.8,0-2.7,0
					c-0.5,0-0.7-0.2-0.9-0.6c-0.1-0.2-0.2-0.3-0.3-0.5c-0.1,0.1-0.3,0.2-0.4,0.3c-0.3-1.1-0.2-2.2-0.2-3.4c-0.1,0.1-0.2,0.2-0.4,0.2
					c0,0-0.1,0-0.1,0c0.2-0.9,0.3-1.7,0.5-2.6c-0.1,0-0.2,0-0.3,0c0.1-0.4,0.1-0.7,0.2-1c0,0,0,0,0,0c-0.1,0.3-0.1,0.5-0.2,0.8
					c-0.1-0.1-0.2-0.2-0.3-0.2c-0.1,0.1-0.2,0.3-0.3,0.4c-0.7-0.6-1.4-0.4-2.2-0.3c-1.5,0.3-3.1,0.3-4.6,0.2l0,0
					c-0.1,0-0.2,0-0.3-0.1c-1-0.3-2-0.5-3.1-0.8C36.4,46.6,36.3,46.6,36.2,46.6z"/>
				<path class="st6" d="M36.2,46.3c0.1,0,0.2,0,0.3,0.1c0.1,0.1,0.2,0.2,0.4,0.2c1,0.2,2,0.4,3,0.7l0,0c0.7,0,1.5,0,2.2,0.1
					c0.2,0,0.4,0,0.7,0c-0.1,0.2-0.2,0.3-0.3,0.5c-0.9,1.2-0.6,2.5-0.2,3.7c0.1,0.2,0.4,0.3,0.6,0.4c0.6,0.2,1.2,0.3,1.4,1
					c0.1,0.5,0.1,0.7-0.4,0.7c-1.8,0-3.6,0-5.3,0c-0.3,0-0.6,0-0.9,0c-0.4,0-0.6-0.2-0.6-0.5c0-0.6,0-1.2-0.1-1.9
					c0-0.2,0-0.4-0.2-0.6c0.1-0.2,0.2-0.5,0.2-0.7c0-0.1,0.2-0.4-0.2-0.4c0,0,0-0.1,0-0.2c0.3-1-0.1-1.9-0.7-2.8
					c0-0.1-0.1-0.1-0.1-0.2C36.1,46.3,36.2,46.3,36.2,46.3z"/>
			</g>
		</g>
	</g>
</g>
</svg>
